<svg width="348" height="342" viewBox="0 0 348 342" fill="none" xmlns="http://www.w3.org/2000/svg">
<path d="M166 56V95L123 133H6L0 123L140.5 69H80L6 30L0 18L166 56Z" fill="white" fill-opacity="0.5"/>
<path d="M182 56V95L225 133H342L348 123L207.5 69H268L342 30L348 18L182 56Z" fill="white" fill-opacity="0.5"/>
<path d="M174 0L192.187 31.5H155.813L174 0Z" fill="white" fill-opacity="0.5"/>
<path d="M207 138.5L185.331 155.5L194.733 160.91L185.331 166.312V326.566L174 342L162.669 326.566V166.312L153.267 160.91L162.669 155.5L141 138.5L174 109L207 138.5Z" fill="white" fill-opacity="0.5"/>
</svg>

